<?xml version="1.0" encoding="UTF-8"?>
<svg version="1.1" xmlns="http://www.w3.org/2000/svg" width="1723" height="1530">
<path d="M0 0 C113.52 0 227.04 0 344 0 C361.43578649 105.77710469 361.43578649 105.77710469 369.60713732 156.1847465 C370.21507105 159.93496735 370.82338782 163.68512606 371.43165201 167.43529332 C371.75520828 169.43016751 372.07874677 171.42504458 372.40226704 173.41992462 C374.27723217 184.98114038 376.15387563 196.54208367 378.03051758 208.10302734 C378.38527878 210.288543 378.74003959 212.47405872 379.0948 214.65957451 C379.63109641 217.96344918 380.16739425 221.26732362 380.70369917 224.57119691 C381.78579793 231.23746214 382.86777149 237.90374767 383.94964677 244.57004917 C389.09239925 276.25853899 394.2411729 307.9460458 399.39453125 339.6328125 C399.74180764 341.7681826 400.08908306 343.90355285 400.4363575 346.03892326 C401.82142336 354.55558282 403.20651656 363.07223792 404.5916338 371.58888912 C420.76801277 471.05274484 436.89772806 570.52412158 453 670 C454.28781196 667.91013137 455.57528507 665.82005527 456.86256409 663.7298584 C457.22570158 663.14063473 457.58883908 662.55141106 457.96298075 661.94433212 C460.31731062 658.12078461 462.63757442 654.28333253 464.90234375 650.40625 C465.55589844 649.28927734 466.20945312 648.17230469 466.8828125 647.02148438 C467.56772036 645.84766327 468.25261585 644.67383494 468.9375 643.5 C469.67562517 642.23753894 470.4139103 640.97517139 471.15234375 639.71289062 C472.67883499 637.10322197 474.20465344 634.49316179 475.72998047 631.8828125 C478.96328908 626.35074938 482.20505429 620.82364702 485.44656372 615.29638672 C487.21475824 612.28114866 488.98234708 609.26555558 490.75 606.25 C491.45833046 605.04166498 492.16666379 603.83333165 492.875 602.625 C493.225625 602.026875 493.57625 601.42875 493.9375 600.8125 C538.03125 525.59375 538.03125 525.59375 582.125 450.375 C582.65091484 449.47785027 582.65091484 449.47785027 583.18745422 448.56257629 C583.89593806 447.35398742 584.60442398 446.14539978 585.31291199 444.93681335 C587.08145979 441.91989977 588.84997154 438.90296506 590.6184082 435.88598633 C593.83314451 430.40168127 597.04816477 424.91754356 600.26449585 419.43417358 C607.1884396 407.62982662 614.10874869 395.82347775 621 384 C628.25325139 371.55543043 635.53897878 359.12998798 642.82666016 346.70556641 C646.03234269 341.24015517 649.23637859 335.77377869 652.44052124 330.3074646 C654.21027838 327.28826922 655.98014478 324.26913789 657.75 321.25 C658.45833386 320.04166697 659.16666719 318.83333364 659.875 317.625 C689.625 266.875 719.375 216.125 749.125 165.375 C749.47557968 164.77695053 749.82615936 164.17890106 750.18736267 163.56272888 C750.8961475 162.35362894 751.60493861 161.14453267 752.31373596 159.93544006 C754.07771264 156.92636591 755.84158253 153.91722926 757.60522461 150.90795898 C760.87409262 145.33060232 764.14393496 139.75382474 767.41751099 134.17922974 C768.93516309 131.59466179 770.45222045 129.00974496 771.96923828 126.42480469 C772.6806955 125.21288069 773.39243211 124.00112067 774.10449219 122.78955078 C779.13512586 114.2297117 784.0907044 105.62976758 789 97 C785.35406967 91.21646022 781.36896242 85.92988485 776.94677734 80.71240234 C772.598854 75.5678148 768.51857548 70.22854828 764.43505859 64.87353516 C761.66339399 61.25499923 758.86188666 57.65960406 756.0625 54.0625 C755.46429443 53.29373535 754.86608887 52.5249707 754.24975586 51.73291016 C750.61399074 47.06407194 746.96930716 42.40237423 743.3125 37.75 C742.86970703 37.18659912 742.42691406 36.62319824 741.97070312 36.04272461 C739.7507393 33.22009439 737.52645282 30.40098 735.296875 27.5859375 C730.22724645 21.17557326 725.2304825 14.71514991 720.3125 8.1875 C719.78277588 7.48705566 719.25305176 6.78661133 718.70727539 6.06494141 C715 1.11985377 715 1.11985377 715 0 C870.1 0 1025.2 0 1185 0 C1183.44006521 3.89983698 1181.92657295 6.9599959 1179.75390625 10.48828125 C1178.76003906 12.1115332 1178.76003906 12.1115332 1177.74609375 13.76757812 C1177.21411377 14.63104858 1177.21411377 14.63104858 1176.67138672 15.51196289 C1174.74216047 18.64451322 1172.82632484 21.78523223 1170.91015625 24.92578125 C1170.50797882 25.58450226 1170.10580139 26.24322327 1169.69143677 26.92190552 C1165.22930366 34.24277082 1160.86398816 41.62037222 1156.5 49 C1149.8851934 60.17878998 1143.19200548 71.30557574 1136.42944336 82.39550781 C1130.9016145 91.47124353 1125.4732636 100.60409147 1120.0625 109.75 C1115.1034224 118.13208872 1110.1338297 126.49684778 1104.90869141 134.71679688 C1100.00148878 142.4936237 1095.37363629 150.44183862 1090.69189453 158.35546875 C1085.02022785 167.94038613 1079.29849567 177.49128765 1073.5 187 C1067.40376556 196.99788166 1061.39820691 207.04576843 1055.4375 217.125 C1049.08516243 227.86566739 1042.62808767 238.52949224 1036.05615234 249.13769531 C1030.37400297 258.33467808 1024.85195521 267.62176427 1019.34912109 276.92675781 C1013.79233352 286.32160044 1008.18316208 295.68107482 1002.5 305 C996.36566672 315.0622947 990.31608117 325.17166768 984.3125 335.3125 C977.2229231 347.28526715 970.04922275 359.20212537 962.78955078 371.07275391 C959.4572055 376.5236161 956.13198162 381.9787969 952.8125 387.4375 C952.459599 388.01777954 952.106698 388.59805908 951.74310303 389.19592285 C945.52095451 399.43423998 939.39591975 409.72860862 933.29336548 420.0385437 C927.07835434 430.53621249 920.78081249 440.97989151 914.42944336 451.39550781 C908.9016145 460.47124353 903.4732636 469.60409147 898.0625 478.75 C893.1034224 487.13208872 888.1338297 495.49684778 882.90869141 503.71679688 C878.00148878 511.4936237 873.37363629 519.44183862 868.69189453 527.35546875 C863.02022785 536.94038613 857.29849567 546.49128765 851.5 556 C845.40376556 565.99788166 839.39820691 576.04576843 833.4375 586.125 C827.08516243 596.86566739 820.62808767 607.52949224 814.05615234 618.13769531 C808.37400297 627.33467808 802.85195521 636.62176427 797.34912109 645.92675781 C791.79233352 655.32160044 786.18316208 664.68107482 780.5 674 C774.36566672 684.0622947 768.31608117 694.17166768 762.3125 704.3125 C755.2229231 716.28526715 748.04922275 728.20212537 740.78955078 740.07275391 C737.4572055 745.5236161 734.13198162 750.9787969 730.8125 756.4375 C730.459599 757.01777954 730.106698 757.59805908 729.74310303 758.19592285 C723.52095451 768.43423998 717.39591975 778.72860862 711.29336548 789.0385437 C705.07835434 799.53621249 698.78081249 809.97989151 692.42944336 820.39550781 C686.9016145 829.47124353 681.4732636 838.60409147 676.0625 847.75 C671.1034224 856.13208872 666.1338297 864.49684778 660.90869141 872.71679688 C656.00148878 880.4936237 651.37363629 888.44183862 646.69189453 896.35546875 C641.02022806 905.94038576 635.29852004 915.4913027 629.5 925 C623.34030973 935.10142831 617.27336714 945.25422998 611.25 955.4375 C605.59402041 964.99912023 599.87214615 974.50709828 593.98242188 983.92724609 C588.69487149 992.4194226 583.61316439 1001.03132811 578.52050781 1009.64111328 C572.90626237 1019.13101349 567.24039653 1028.58588469 561.5 1038 C555.36564149 1048.06227913 549.31608095 1058.17166804 543.3125 1068.3125 C536.2229231 1080.28526715 529.04922275 1092.20212537 521.78955078 1104.07275391 C518.4572055 1109.5236161 515.13198162 1114.9787969 511.8125 1120.4375 C511.459599 1121.01777954 511.106698 1121.59805908 510.74310303 1122.19592285 C504.52095451 1132.43423998 498.39591975 1142.72860862 492.29336548 1153.0385437 C486.07835434 1163.53621249 479.78081249 1173.97989151 473.42944336 1184.39550781 C467.9016145 1193.47124353 462.4732636 1202.60409147 457.0625 1211.75 C452.1034224 1220.13208872 447.1338297 1228.49684778 441.90869141 1236.71679688 C437.00148878 1244.4936237 432.37363629 1252.44183862 427.69189453 1260.35546875 C422.02022785 1269.94038613 416.29849567 1279.49128765 410.5 1289 C404.40376556 1298.99788166 398.39820691 1309.04576843 392.4375 1319.125 C386.08516243 1329.86566739 379.62808767 1340.52949224 373.05615234 1351.13769531 C367.37400297 1360.33467808 361.85195521 1369.62176427 356.34912109 1378.92675781 C350.79233352 1388.32160044 345.18316208 1397.68107482 339.5 1407 C333.36566672 1417.0622947 327.31608117 1427.17166768 321.3125 1437.3125 C314.2409367 1449.25484607 307.08477876 1461.14078215 299.84228516 1472.98046875 C297.75631088 1476.39940989 295.67995935 1479.82408377 293.60546875 1483.25 C292.84326259 1484.50813855 292.08105555 1485.76627657 291.31884766 1487.02441406 C290.20891124 1488.8566806 289.09929846 1490.68913803 287.99090576 1492.52233887 C283.42230934 1500.07746792 278.77547943 1507.57376042 274 1515 C272.01845131 1512.02767697 271.55861494 1510.55667151 270.94548035 1507.13430786 C270.76070161 1506.12277964 270.57592287 1505.11125141 270.38554478 1504.06907082 C270.0906486 1502.39350137 270.0906486 1502.39350137 269.78979492 1500.68408203 C269.4675603 1498.9024746 269.4675603 1498.9024746 269.13881588 1497.08487511 C268.54003879 1493.76626599 267.94765918 1490.44662541 267.35781145 1487.12642479 C266.71492475 1483.51690042 266.06375143 1479.90887057 265.4135437 1476.30065918 C264.27203683 1469.95980289 263.13563537 1463.6180482 262.00247192 1457.2756958 C260.31366361 1447.82397778 258.61651267 1438.3737717 256.91714513 1428.9239471 C256.10561895 1424.41119922 255.29437747 1419.89840018 254.48320007 1415.3855896 C254.31933133 1414.4739496 254.15546258 1413.56230959 253.98662812 1412.62304413 C252.79410484 1405.98781393 251.60306056 1399.35231916 250.41267395 1392.71670532 C245.3628573 1364.56839848 240.29312276 1336.42373003 235.2109375 1308.28125 C234.83630932 1306.2066587 234.46168125 1304.13206738 234.0870533 1302.05747604 C232.56988093 1293.65596902 231.05258463 1285.25448438 229.5351038 1276.85303307 C225.60894265 1255.11582552 221.686007 1233.37803616 217.76327705 1211.6402092 C215.96537109 1201.67713704 214.1673106 1191.71409277 212.36925638 1181.75104737 C211.77019233 1178.43162154 211.17113192 1175.11219506 210.57207203 1171.79276848 C206.28658632 1148.04669509 202.00073922 1124.30068693 197.71484375 1100.5546875 C197.3302968 1098.42410279 196.94574989 1096.29351807 196.561203 1094.16293335 C193.87414689 1079.27528682 191.18707508 1064.38764311 188.5 1049.5 C185.6206443 1033.547033 182.74129357 1017.5940651 179.86195946 1001.64109421 C179.47751578 999.51108165 179.09307186 997.38106914 178.7086277 995.25105667 C173.21600177 964.81916347 167.7236901 934.38721356 162.23162723 903.95521873 C158.66347777 884.1838097 155.09523961 864.41241668 151.52694607 844.64103365 C151.13394073 842.46344911 150.740936 840.28586446 150.34793186 838.10827971 C142.129378 792.57036201 133.91056195 747.03249217 125.68359375 701.49609375 C125.54015274 700.7021436 125.39671173 699.90819345 125.24892402 699.09018421 C122.84598844 685.78993224 120.44286327 672.48971453 118.0396843 659.18950653 C107.47246239 600.70587992 96.9195403 542.21967812 86.36952972 483.73294449 C76.39248262 428.42264546 66.41037992 373.11326667 56.41667509 317.80597496 C45.91986514 259.71423525 35.43263418 201.62077047 24.95133126 143.52623081 C23.59498333 136.00844153 22.23854997 128.49066767 20.88208008 120.97290039 C19.04990191 110.81863631 17.21794434 100.66433244 15.38613319 90.51000214 C14.71415589 86.785039 14.04210642 83.06008891 13.36998558 79.33515167 C13.21133178 78.45584228 13.05267798 77.57653289 12.88921648 76.67057776 C12.57413984 74.92433403 12.25904517 73.17809354 11.943932 71.43185639 C11.18630629 67.23274542 10.42936376 63.03351349 9.67395306 58.83400345 C8.28945703 51.13893041 6.90053822 43.44475619 5.49495929 35.75350165 C4.83277009 32.12712204 4.17391006 28.50014161 3.51549017 24.87307596 C3.2019137 23.15055504 2.88678618 21.42831566 2.57000959 19.70638037 C2.13358648 17.33337957 1.70254162 14.95945918 1.2726593 12.58526611 C1.14292288 11.88767071 1.01318646 11.19007531 0.87951863 10.47134066 C0.23129695 6.85867429 0 3.71121732 0 0 Z " fill="#ED3237" transform="translate(208,0)"/>
<path d="M0 0 C0.66 0.33 1.32 0.66 2 1 C2.66090965 3.77305794 2.66090965 3.77305794 3.25106812 7.57620239 C3.36208178 8.27536662 3.47309544 8.97453084 3.58747315 9.69488186 C3.96193042 12.06762431 4.32338042 14.44217299 4.68505859 16.81689453 C4.95213172 18.52655113 5.21999759 20.23608405 5.48859215 21.94550228 C6.22870089 26.67079656 6.95751349 31.39777617 7.68462658 36.12508512 C8.47001004 41.2181505 9.26578724 46.30959213 10.06036377 51.40122986 C11.4432819 60.27221796 12.81963579 69.14420492 14.19171143 78.01687622 C16.21362553 91.09134098 18.24587785 104.16418312 20.2807157 117.236642 C23.41272004 137.35856367 26.53897409 157.48137277 29.66085839 177.60486686 C34.18875391 206.79099449 38.7316233 235.97476824 43.28301787 265.15723991 C43.82915296 268.65893479 44.37525011 272.16063558 44.92133522 275.66233826 C46.38364813 285.03921315 47.84597373 294.41608605 49.30840778 303.79294205 C51.92037107 320.54090658 54.53042387 337.28916821 57.1394043 354.03759766 C57.32720077 355.24315638 57.51499725 356.44871511 57.70848453 357.69080591 C58.47007319 362.57985355 59.23165134 367.46890282 59.9932186 372.35795379 C66.82519196 416.21726864 73.66172933 460.07586949 80.50390625 503.93359375 C80.70202691 505.20352968 80.90014757 506.4734656 81.10427189 507.78188443 C83.72562433 524.5843967 86.34720148 541.38687391 88.96883392 558.1893425 C92.54687048 581.1215857 96.12472997 604.05385654 99.70241272 626.98615494 C99.90865707 628.30814348 100.11490178 629.63013197 100.32114685 630.95212039 C106.95242368 673.45725076 113.58093266 715.9628121 120.20703125 758.46875 C120.31304252 759.14880399 120.41905379 759.82885799 120.52827752 760.52951968 C123.21044289 777.73542469 125.89248689 794.94134862 128.57449245 812.14727855 C132.61071116 838.04091716 136.6470556 863.93453618 140.68359375 889.828125 C140.78860431 890.50174713 140.89361487 891.17536927 141.00180757 891.8694042 C150.7682266 954.51897313 160.53847824 1017.16794413 170.31105839 1079.81655228 C171.89952685 1089.99967528 173.48788347 1100.18281571 175.07617188 1110.3659668 C176.86906023 1121.86087619 178.66212409 1133.35575819 180.45539373 1144.85060811 C181.53375483 1151.76290941 182.61197624 1158.67523246 183.69002885 1165.58758187 C184.18960633 1168.79042034 184.6893761 1171.99322876 185.18916988 1175.19603348 C185.82984323 1179.3018406 186.46961599 1183.40778657 187.10873508 1187.51383591 C188.6199794 1197.21503697 190.142317 1206.91427889 191.69054061 1216.60965562 C192.4451403 1221.33676861 193.19600053 1226.06447281 193.94676769 1230.7921958 C194.3065627 1233.05036758 194.66830903 1235.30822943 195.03212845 1237.56575632 C195.53514487 1240.68735707 196.03158638 1243.80994071 196.52671814 1246.93280029 C196.67669136 1247.85197471 196.82666459 1248.77114913 196.98118246 1249.71817732 C197.18381072 1251.00797711 197.18381072 1251.00797711 197.39053249 1252.32383347 C197.5089108 1253.062216 197.62728911 1253.80059854 197.74925464 1254.56135631 C198.07117051 1257.69217444 198 1260.85267542 198 1264 C6.93 1264 -184.14 1264 -381 1264 C-380.07775588 1260.3110235 -379.03055556 1258.04348389 -377.1484375 1254.80078125 C-376.55240723 1253.76977295 -375.95637695 1252.73876465 -375.34228516 1251.67651367 C-374.69308105 1250.56638916 -374.04387695 1249.45626465 -373.375 1248.3125 C-372.69428305 1247.1411572 -372.01378531 1245.96968698 -371.33349609 1244.7980957 C-366.22590396 1236.02061234 -361.01429668 1227.30645633 -355.76904297 1218.6105957 C-350.94824422 1210.6106655 -346.21113098 1202.56472953 -341.5 1194.5 C-335.62219669 1184.43979248 -329.67422189 1174.4258415 -323.65966797 1164.4465332 C-318.55387617 1155.95995192 -313.55059782 1147.41614832 -308.55981445 1138.86172485 C-302.78593755 1128.97189383 -296.87651079 1119.17095844 -290.90704346 1109.39819336 C-286.45448247 1102.10424359 -282.09461341 1094.78144154 -277.95800781 1087.30395508 C-275.28888225 1082.48124206 -272.48970066 1077.7530941 -269.63891602 1073.03686523 C-266.37041237 1067.62819561 -263.14866812 1062.19288863 -259.9375 1056.75 C-258.82296285 1054.8619519 -257.70837807 1052.97393192 -256.59375 1051.0859375 C-256.01367188 1050.10334961 -255.43359375 1049.12076172 -254.8359375 1048.10839844 C-246.60878434 1034.17912796 -238.36913849 1020.25704917 -230.0625 1006.375 C-229.56032959 1005.53372559 -229.05815918 1004.69245117 -228.54077148 1003.82568359 C-228.08516846 1003.06594238 -227.62956543 1002.30620117 -227.16015625 1001.5234375 C-226.76449463 1000.86263184 -226.36883301 1000.20182617 -225.96118164 999.52099609 C-225 998 -225 998 -224 997 C-222.40577964 996.90402796 -220.8072955 996.87812076 -219.21018982 996.87974548 C-218.17387421 996.87837082 -217.13755859 996.87699615 -216.06983948 996.87557983 C-214.35002113 996.88097275 -214.35002113 996.88097275 -212.59545898 996.88647461 C-211.39562378 996.88632858 -210.19578857 996.88618256 -208.95959473 996.8860321 C-205.66014809 996.88661106 -202.36076336 996.89164022 -199.0613277 996.89860606 C-195.61665703 996.90484027 -192.17198562 996.90544345 -188.72731018 996.90663147 C-182.2001727 996.90974459 -175.67305189 996.91795771 -169.14592177 996.92798096 C-161.71677984 996.9391427 -154.28763714 996.9446527 -146.85848892 996.94967639 C-131.57231628 996.96014034 -116.28616028 996.9777394 -101 997 C-101.33 996.34 -101.66 995.68 -102 995 C-102.2837132 993.23199745 -102.51929399 991.4561872 -102.73212528 989.6782589 C-102.86996876 988.54217324 -103.00781223 987.40608758 -103.14983279 986.23557508 C-103.29866693 984.97684257 -103.44750107 983.71811005 -103.60084534 982.42123413 C-103.76225547 981.07890937 -103.92399466 979.73662414 -104.08603615 978.39437544 C-104.53181323 974.69378152 -104.97289479 970.99264049 -105.41324222 967.29139709 C-105.88837361 963.3047041 -106.36781426 959.31852919 -106.84674072 955.33229065 C-107.67640188 948.42177398 -108.50331155 941.51093248 -109.32837105 934.59986496 C-110.52128325 924.60753208 -111.71831628 914.61569631 -112.91636657 904.62397833 C-114.85985332 888.41438255 -116.79999118 872.20438775 -118.73803711 855.99414062 C-120.62105079 840.24425606 -122.50563289 824.49456048 -124.39233398 808.74511719 C-124.50856409 807.77486907 -124.62479419 806.80462096 -124.74454642 805.80497138 C-125.32762881 800.93768641 -125.91074214 796.07040514 -126.49387085 791.20312572 C-131.33404403 750.80265744 -136.16878825 710.40154083 -141 670 C-143.58556233 672.49320077 -145.30432714 674.96362775 -147.125 678.07421875 C-147.73915771 679.11763428 -148.35331543 680.1610498 -148.98608398 681.23608398 C-149.65067627 682.37505127 -150.31526855 683.51401855 -151 684.6875 C-151.70788379 685.89232056 -152.41631073 687.09682214 -153.12524414 688.30102539 C-154.63621144 690.86826756 -156.14519105 693.43666246 -157.65283203 696.00585938 C-161.56110222 702.66154354 -165.49868773 709.29986075 -169.4375 715.9375 C-170.03495026 716.94502319 -170.03495026 716.94502319 -170.64447021 717.97290039 C-176.58833724 727.99352953 -182.60825259 737.96515948 -188.67648315 747.91085815 C-194.41366502 757.31972968 -200.01318909 766.80322714 -205.56304932 776.32357788 C-211.12533403 785.86081754 -216.80807222 795.3173995 -222.5625 804.73974609 C-227.9730281 813.60396148 -233.27018437 822.52807824 -238.5 831.5 C-244.41461252 841.64671347 -250.44111459 851.71654011 -256.5625 861.73974609 C-261.9730281 870.60396148 -267.27018437 879.52807824 -272.5 888.5 C-278.41461252 898.64671347 -284.44111459 908.71654011 -290.5625 918.73974609 C-295.97302935 927.60396352 -301.27010246 936.52812431 -306.5 945.5 C-312.15695113 955.20394481 -317.90182888 964.84753939 -323.75 974.4375 C-330.31548954 985.20562738 -336.77596686 996.03033782 -343.17285156 1006.89941406 C-346.85477615 1013.14746888 -350.55056711 1019.38729901 -354.25 1025.625 C-354.85732971 1026.64921555 -354.85732971 1026.64921555 -355.47692871 1027.69412231 C-361.47670631 1037.8070159 -367.55118355 1047.87173472 -373.67565918 1057.90948486 C-379.41311313 1067.31881595 -385.01292015 1076.8027658 -390.56304932 1086.32357788 C-396.12533403 1095.86081754 -401.80807222 1105.3173995 -407.5625 1114.73974609 C-412.9730281 1123.60396148 -418.27018437 1132.52807824 -423.5 1141.5 C-429.41461252 1151.64671347 -435.44111459 1161.71654011 -441.5625 1171.73974609 C-446.9730281 1180.60396148 -452.27018437 1189.52807824 -457.5 1198.5 C-463.41461252 1208.64671347 -469.44111459 1218.71654011 -475.5625 1228.73974609 C-480.9730281 1237.60396148 -486.27018437 1246.52807824 -491.5 1255.5 C-497.41461252 1265.64671347 -503.44111459 1275.71654011 -509.5625 1285.73974609 C-514.97302935 1294.60396352 -520.27010246 1303.52812431 -525.5 1312.5 C-531.15695113 1322.20394481 -536.90182888 1331.84753939 -542.75 1341.4375 C-549.31548954 1352.20562738 -555.77596686 1363.03033782 -562.17285156 1373.89941406 C-565.85477615 1380.14746888 -569.55056711 1386.38729901 -573.25 1392.625 C-573.85732971 1393.64921555 -573.85732971 1393.64921555 -574.47692871 1394.69412231 C-580.47670631 1404.8070159 -586.55118355 1414.87173472 -592.67565918 1424.90948486 C-598.41311313 1434.31881595 -604.01292015 1443.8027658 -609.56304932 1453.32357788 C-615.12121369 1462.85375269 -620.79691451 1472.30522198 -626.55041504 1481.71859741 C-630.65093865 1488.43035756 -634.70525852 1495.16509529 -638.671875 1501.95703125 C-639.05706299 1502.61653778 -639.44225098 1503.27604431 -639.83911133 1503.95553589 C-641.69256146 1507.13281602 -643.54009187 1510.31340354 -645.38085938 1513.49804688 C-646.05075973 1514.65105417 -646.72068056 1515.80404957 -647.390625 1516.95703125 C-647.96844727 1517.95710205 -648.54626953 1518.95717285 -649.14160156 1519.98754883 C-649.75487305 1520.98165771 -650.36814453 1521.9757666 -651 1523 C-651.29933715 1523.59262746 -651.59867429 1524.18525493 -651.90708226 1524.7958408 C-653.58287057 1527.7194434 -654.84606793 1529.65781403 -658.1655165 1530.6421603 C-660.95607893 1530.88581046 -663.67102959 1530.89905772 -666.47187805 1530.84178162 C-667.53787379 1530.84776259 -668.60386953 1530.85374356 -669.70216817 1530.85990578 C-673.28055009 1530.87145265 -676.85664363 1530.83291028 -680.43481445 1530.79467773 C-682.99709519 1530.7927036 -685.55937989 1530.79381078 -688.12165833 1530.79777527 C-693.64126603 1530.7993702 -699.1601345 1530.77949573 -704.67959023 1530.7401104 C-712.65960664 1530.68320425 -720.63934303 1530.66498872 -728.61954036 1530.65619446 C-741.56691295 1530.64087653 -754.51397672 1530.59429907 -767.46118164 1530.52807617 C-780.03766332 1530.46381638 -792.61406111 1530.41427078 -805.19067383 1530.38452148 C-805.96597906 1530.38268242 -806.74128429 1530.38084336 -807.54008362 1530.37894856 C-811.42958845 1530.36981325 -815.31909387 1530.36096731 -819.20859969 1530.35226524 C-851.47262424 1530.27970593 -883.73626924 1530.156421 -916 1530 C-914.49034633 1526.11712251 -912.72959399 1522.64109119 -910.61328125 1519.046875 C-910.27988235 1518.47875595 -909.94648346 1517.9106369 -909.60298157 1517.32530212 C-908.5096938 1515.46475896 -907.41124569 1513.60732437 -906.3125 1511.75 C-905.54002176 1510.43866399 -904.76772612 1509.12722041 -903.99560547 1507.81567383 C-898.64283539 1498.73401008 -893.23494052 1489.68572581 -887.79907227 1480.65356445 C-882.75215888 1472.26621003 -877.74455884 1463.85608781 -872.75 1455.4375 C-872.15680969 1454.43777161 -872.15680969 1454.43777161 -871.55163574 1453.41784668 C-869.52849143 1450.00796742 -867.50579202 1446.59782456 -865.48339844 1443.1875 C-861.68780415 1436.78710081 -857.89056581 1430.38767781 -854.09240723 1423.98880005 C-852.92163551 1422.01607965 -851.75132244 1420.04308775 -850.58105469 1418.07006836 C-846.91570866 1411.89290767 -843.23840297 1405.72327564 -839.5390625 1399.56640625 C-834.82976346 1391.72846472 -830.16276661 1383.8656862 -825.5 1376 C-820.48185439 1367.53482001 -815.45229775 1359.07707979 -810.38354492 1350.64208984 C-806.06111642 1343.44463858 -801.78120295 1336.22202112 -797.5 1329 C-792.48185439 1320.53482001 -787.45229775 1312.07707979 -782.38354492 1303.64208984 C-778.06111642 1296.44463858 -773.78120295 1289.22202112 -769.5 1282 C-764.48185439 1273.53482001 -759.45229775 1265.07707979 -754.38354492 1256.64208984 C-750.06111642 1249.44463858 -745.78120295 1242.22202112 -741.5 1235 C-736.48185439 1226.53482001 -731.45229775 1218.07707979 -726.38354492 1209.64208984 C-722.06111642 1202.44463858 -717.78120295 1195.22202112 -713.5 1188 C-708.48185439 1179.53482001 -703.45229775 1171.07707979 -698.38354492 1162.64208984 C-694.06111642 1155.44463858 -689.78120295 1148.22202112 -685.5 1141 C-680.48185439 1132.53482001 -675.45229775 1124.07707979 -670.38354492 1115.64208984 C-666.06111642 1108.44463858 -661.78120295 1101.22202112 -657.5 1094 C-652.48185439 1085.53482001 -647.45229775 1077.07707979 -642.38354492 1068.64208984 C-638.06111642 1061.44463858 -633.78120295 1054.22202112 -629.5 1047 C-624.48185439 1038.53482001 -619.45229775 1030.07707979 -614.38354492 1021.64208984 C-610.06111642 1014.44463858 -605.78120295 1007.22202112 -601.5 1000 C-596.48185439 991.53482001 -591.45229775 983.07707979 -586.38354492 974.64208984 C-582.06111642 967.44463858 -577.78120295 960.22202112 -573.5 953 C-568.48185439 944.53482001 -563.45229775 936.07707979 -558.38354492 927.64208984 C-554.06111642 920.44463858 -549.78120295 913.22202112 -545.5 906 C-540.48185439 897.53482001 -535.45229775 889.07707979 -530.38354492 880.64208984 C-526.06111642 873.44463858 -521.78120295 866.22202112 -517.5 859 C-512.48185439 850.53482001 -507.45229775 842.07707979 -502.38354492 833.64208984 C-498.06111642 826.44463858 -493.78120295 819.22202112 -489.5 812 C-484.48185439 803.53482001 -479.45229775 795.07707979 -474.38354492 786.64208984 C-470.06111642 779.44463858 -465.78120295 772.22202112 -461.5 765 C-456.48185439 756.53482001 -451.45229775 748.07707979 -446.38354492 739.64208984 C-442.06111642 732.44463858 -437.78120295 725.22202112 -433.5 718 C-428.48185439 709.53482001 -423.45229775 701.07707979 -418.38354492 692.64208984 C-414.06111642 685.44463858 -409.78120295 678.22202112 -405.5 671 C-400.48185439 662.53482001 -395.45229775 654.07707979 -390.38354492 645.64208984 C-386.06111642 638.44463858 -381.78120295 631.22202112 -377.5 624 C-372.48185439 615.53482001 -367.45229775 607.07707979 -362.38354492 598.64208984 C-358.06111642 591.44463858 -353.78120295 584.22202112 -349.5 577 C-344.48185439 568.53482001 -339.45229775 560.07707979 -334.38354492 551.64208984 C-330.06111642 544.44463858 -325.78120295 537.22202112 -321.5 530 C-316.48185439 521.53482001 -311.45229775 513.07707979 -306.38354492 504.64208984 C-302.06111642 497.44463858 -297.78120295 490.22202112 -293.5 483 C-288.48185439 474.53482001 -283.45229775 466.07707979 -278.38354492 457.64208984 C-274.06111642 450.44463858 -269.78120295 443.22202112 -265.5 436 C-260.84553833 428.14832353 -256.18669201 420.2996992 -251.484375 412.4765625 C-248.44495953 407.41973977 -245.42462147 402.352121 -242.421875 397.2734375 C-233.96899467 382.97891874 -225.44871209 368.74089612 -216.65283203 354.65380859 C-213.50071206 349.5927238 -210.37553571 344.5150305 -207.25 339.4375 C-206.24610229 337.80675537 -206.24610229 337.80675537 -205.22192383 336.14306641 C-199.92407099 327.52593242 -194.67040931 318.88255298 -189.42834473 310.23141479 C-183.66713465 300.72469646 -177.85514163 291.25034798 -172.01953125 281.7890625 C-167.14564751 273.87977376 -162.31427168 265.94563 -157.5 258 C-151.3823352 247.90320776 -145.21705589 237.8371202 -139.01953125 227.7890625 C-134.14564751 219.87977376 -129.31427168 211.94563 -124.5 204 C-118.3823352 193.90320776 -112.21705589 183.8371202 -106.01953125 173.7890625 C-101.14564751 165.87977376 -96.31427168 157.94563 -91.5 150 C-85.3823352 139.90320776 -79.21705589 129.8371202 -73.01953125 119.7890625 C-68.14564751 111.87977376 -63.31427168 103.94563 -58.5 96 C-52.38454877 85.9068611 -46.22182547 75.84421354 -40.02612305 65.80004883 C-34.72335308 57.19536941 -29.47433073 48.55901911 -24.2381897 39.91372681 C-18.91574391 31.12767285 -13.54633832 22.37226252 -8.10864258 13.65698242 C-5.30602082 9.15577386 -2.59820303 4.62245622 0 0 Z " fill="#FEFEFE" transform="translate(1525,0)"/>
</svg>
